<?xml version="1.0" standalone="no"?>
<!DOCTYPE svg PUBLIC "-//W3C//DTD SVG 20010904//EN"
 "http://www.w3.org/TR/2001/REC-SVG-20010904/DTD/svg10.dtd">
<svg version="1.0" xmlns="http://www.w3.org/2000/svg"
 width="75.000000pt" height="15.000000pt" viewBox="0 0 75.000000 15.000000"
 preserveAspectRatio="xMidYMid meet">

<g transform="translate(0.000000,15.000000) scale(0.100000,-0.100000)"
fill="#000000" stroke="none">
<path d="M153 133 c51 -4 55 -11 31 -48 -9 -14 -12 -25 -6 -25 15 0 44 50 38
66 -4 10 -21 13 -58 12 l-53 -2 48 -3z"/>
<path d="M131 81 c-22 -31 -26 -41 -13 -41 4 0 17 16 30 35 27 42 12 47 -17 6z"/>
<path d="M72 66 c-11 -19 -18 -37 -15 -40 4 -3 31 -5 62 -4 l56 2 -47 3 c-52
4 -56 11 -32 48 9 14 12 25 6 25 -5 0 -19 -15 -30 -34z"/>
<path d="M237 66 c-19 -28 -13 -36 22 -36 20 0 23 2 11 10 -12 8 -13 13 -2 30
19 30 -11 27 -31 -4z"/>
<path d="M318 80 c12 -5 22 -12 22 -15 0 -3 -10 -10 -22 -15 -19 -7 -20 -9 -5
-9 10 -1 27 4 38 10 27 14 7 39 -30 38 -25 0 -25 0 -3 -9z"/>
<path d="M392 70 c-20 -33 -14 -40 36 -38 36 1 39 2 15 5 -18 2 -33 8 -33 14
0 5 15 10 33 10 l32 2 -29 4 c-22 4 -26 7 -15 14 11 7 10 9 -6 9 -11 0 -26 -9
-33 -20z"/>
<path d="M478 83 c7 -3 16 -2 19 1 4 3 -2 6 -13 5 -11 0 -14 -3 -6 -6z"/>
<path d="M530 85 c0 -3 7 -17 16 -30 l16 -25 50 27 c28 15 45 29 39 31 -6 2
-26 -6 -44 -17 -32 -20 -33 -20 -45 -1 -11 18 -32 28 -32 15z"/>
</g>
</svg>
